<svg width="500" height="500" viewBox="0 0 500 500" fill="none" xmlns="http://www.w3.org/2000/svg">
<g clip-path="url(#clip0_132_27)">
<rect width="500" height="500" rx="60" fill="#454678"/>
<rect x="-3" y="396" width="503" height="104" fill="#393969"/>
<rect opacity="0.05" x="-13" y="413" width="132" height="87" fill="url(#paint0_linear_132_27)"/>
<rect opacity="0.05" x="379" y="413" width="132" height="87" fill="url(#paint1_linear_132_27)"/>
<rect width="500" height="450" rx="60" fill="#454678"/>
<rect x="34" y="33" width="428" height="384" rx="44" stroke="#606199" stroke-width="12"/>
<path fill-rule="evenodd" clip-rule="evenodd" d="M186.495 327.37C196.015 324.117 206.422 323.197 216.444 322.32C238.553 320.386 254.907 300.895 252.973 278.786C250.846 254.474 232.698 231.666 216.484 213.426C202.123 197.269 180.569 187.874 157.38 189.903C118.443 193.309 89.6396 227.636 93.0462 266.573C93.7657 274.797 93.1692 283.248 92.5801 291.593C92.3912 294.27 92.203 296.936 92.0593 299.58C91.9569 301.465 91.9861 303.379 92.1553 305.314C94.0896 327.423 113.58 343.777 135.689 341.843C141.486 341.336 146.887 339.622 151.666 336.97C157.254 333.871 163.351 331.464 169.717 330.907C175.563 330.395 181.181 329.187 186.495 327.37ZM191.597 257.728C193.603 280.648 189.706 282.836 184.702 283.274C179.697 283.712 175.453 281.928 173.474 259.314C171.656 238.533 175.366 234.206 180.37 233.768C185.375 233.33 189.592 234.809 191.597 257.728ZM153.622 261.496C155.627 284.415 151.731 286.604 146.726 287.042C141.722 287.48 137.478 285.695 135.499 263.081C133.681 242.301 137.391 237.973 142.395 237.536C147.4 237.098 151.617 238.576 153.622 261.496Z" fill="#5EFF97"/>
<path fill-rule="evenodd" clip-rule="evenodd" d="M358.84 119.368C360.13 123.536 364.27 126.497 368.633 126.497C388.237 126.497 404.129 142.389 404.129 161.994C404.129 170.514 401.128 178.333 396.124 184.451C390.288 191.586 385.253 200.19 384.501 209.377C384.49 209.511 384.479 209.645 384.467 209.78C381.06 248.717 346.734 277.52 307.796 274.114C268.859 270.707 240.056 236.381 243.462 197.443C243.531 196.664 243.611 195.889 243.704 195.118C244.731 186.58 241.939 177.82 238.287 170.034C236.228 165.644 235.076 160.737 235.076 155.56C235.076 136.813 250.174 121.616 268.798 121.616C275.288 121.616 282.084 117.877 285.164 112.164C291.958 99.5596 305.23 91 320.491 91C338.509 91 353.755 102.933 358.84 119.368ZM329.239 211.13C328.402 214.056 325.36 215.764 322.422 214.947C319.471 214.127 317.743 211.07 318.563 208.118L318.565 208.113C318.563 208.118 318.564 208.116 318.565 208.113L318.57 208.095L318.578 208.066C318.584 208.045 318.591 208.021 318.599 207.993C318.616 207.937 318.637 207.868 318.662 207.787C318.713 207.623 318.784 207.409 318.875 207.152C319.058 206.638 319.327 205.943 319.701 205.132C320.44 203.524 321.627 201.37 323.423 199.235C327.136 194.823 333.416 190.615 342.867 191.442C352.318 192.269 357.771 197.503 360.662 202.493C362.06 204.907 362.855 207.235 363.304 208.947C363.53 209.811 363.675 210.541 363.766 211.079C363.811 211.349 363.843 211.572 363.865 211.741C363.876 211.826 363.885 211.898 363.891 211.956C363.895 211.984 363.897 212.01 363.9 212.031L363.903 212.061L363.905 212.08C363.905 212.083 363.903 212.061 363.903 212.061L363.905 212.085C364.2 215.134 361.968 217.845 358.919 218.141C355.884 218.434 353.184 216.224 352.868 213.197L352.866 213.175L352.863 213.152C352.856 213.105 352.845 213.027 352.827 212.921C352.784 212.667 352.706 212.265 352.574 211.761C352.305 210.738 351.839 209.392 351.063 208.053C349.605 205.536 347.058 202.944 341.9 202.492C336.742 202.041 333.784 204.151 331.91 206.377C330.914 207.561 330.221 208.805 329.778 209.767C329.561 210.24 329.414 210.623 329.328 210.865C329.285 210.985 329.258 211.069 329.246 211.109L329.239 211.13ZM270.706 210.423C273.643 211.239 276.686 209.531 277.523 206.605L277.53 206.584C277.542 206.544 277.569 206.461 277.612 206.34C277.698 206.098 277.845 205.715 278.062 205.242C278.504 204.281 279.198 203.037 280.194 201.853C282.067 199.627 285.025 197.517 290.184 197.968C295.342 198.419 297.889 201.011 299.347 203.528C300.122 204.867 300.589 206.213 300.858 207.237C300.99 207.74 301.068 208.143 301.111 208.396C301.132 208.522 301.144 208.609 301.149 208.65L301.152 208.672C301.468 211.7 304.168 213.91 307.203 213.616C310.252 213.321 312.484 210.61 312.189 207.561L312.188 207.549C312.186 207.536 312.189 207.558 312.188 207.555L312.188 207.549L312.186 207.536L312.183 207.507C312.181 207.485 312.178 207.46 312.175 207.431C312.169 207.373 312.16 207.302 312.149 207.217C312.127 207.047 312.095 206.824 312.049 206.554C311.959 206.016 311.814 205.286 311.587 204.422C311.138 202.711 310.344 200.383 308.945 197.968C306.055 192.979 300.601 187.744 291.15 186.917C281.699 186.09 275.42 190.298 271.707 194.71C269.91 196.845 268.724 199 267.984 200.607C267.611 201.419 267.342 202.113 267.159 202.627C267.068 202.885 266.997 203.099 266.946 203.262C266.935 203.297 266.925 203.33 266.915 203.36C266.903 203.401 266.892 203.437 266.883 203.468C266.878 203.485 266.874 203.5 266.87 203.514C266.867 203.524 266.864 203.533 266.862 203.542L266.853 203.57L266.85 203.583L266.848 203.588C266.848 203.591 266.872 203.504 266.87 203.514L266.847 203.594C266.027 206.545 267.754 209.603 270.706 210.423Z" fill="#FF5F5F"/>
<path fill-rule="evenodd" clip-rule="evenodd" d="M219.649 108.371C220.344 111.981 217.981 115.471 214.372 116.166C205.648 117.846 197.274 120.504 189.367 124.024C186.009 125.518 182.075 124.008 180.58 120.65C179.085 117.291 180.596 113.357 183.954 111.863C192.777 107.936 202.122 104.969 211.855 103.095C215.464 102.399 218.954 104.762 219.649 108.371ZM146.932 146.003C149.745 148.369 150.107 152.568 147.741 155.381C142.12 162.062 137.243 169.387 133.233 177.226C131.56 180.499 127.55 181.795 124.277 180.121C121.005 178.447 119.708 174.438 121.382 171.165C125.854 162.421 131.292 154.257 137.554 146.812C139.92 143.999 144.119 143.637 146.932 146.003ZM339.627 296.146C342.606 298.299 343.276 302.459 341.122 305.438C335.151 313.701 328.226 321.227 320.509 327.857C317.721 330.252 313.519 329.934 311.124 327.146C308.728 324.358 309.047 320.155 311.835 317.76C318.761 311.81 324.976 305.055 330.334 297.641C332.487 294.662 336.648 293.992 339.627 296.146ZM271.575 347.41C272.433 350.984 270.232 354.577 266.657 355.436C256.948 357.767 246.817 359 236.408 359C232.732 359 229.752 356.02 229.752 352.344C229.752 348.669 232.732 345.689 236.408 345.689C245.763 345.689 254.85 344.581 263.55 342.492C267.124 341.634 270.717 343.836 271.575 347.41Z" fill="#E0E0E0"/>
</g>
<defs>
<linearGradient id="paint0_linear_132_27" x1="119" y1="456.5" x2="-13" y2="456.5" gradientUnits="userSpaceOnUse">
<stop stop-color="white" stop-opacity="0"/>
<stop offset="0.5" stop-color="white"/>
<stop offset="1" stop-color="white" stop-opacity="0"/>
</linearGradient>
<linearGradient id="paint1_linear_132_27" x1="511" y1="456.5" x2="379" y2="456.5" gradientUnits="userSpaceOnUse">
<stop stop-color="white" stop-opacity="0"/>
<stop offset="0.5" stop-color="white"/>
<stop offset="1" stop-color="white" stop-opacity="0"/>
</linearGradient>
<clipPath id="clip0_132_27">
<rect width="500" height="500" rx="60" fill="white"/>
</clipPath>
</defs>
</svg>
