<svg width="16" height="16" viewBox="0 0 16 16" fill="none" xmlns="http://www.w3.org/2000/svg">
<g clip-path="url(#clip0_1302_243)">
<path opacity="0.42" fill-rule="evenodd" clip-rule="evenodd" d="M9.30632 1.28067L11.2582 4.74137L14.7189 6.6933C15.7364 7.26717 15.7364 8.73245 14.7189 9.30632L11.2582 11.2582L9.30632 14.7189C8.73245 15.7364 7.26717 15.7364 6.6933 14.7189L4.74137 11.2582L1.28067 9.30632C0.263212 8.73245 0.263215 7.26717 1.28067 6.6933L4.74137 4.74137L6.6933 1.28067C7.26717 0.263212 8.73245 0.263215 9.30632 1.28067ZM7.56431 1.77194C7.7556 1.43279 8.24402 1.43279 8.43531 1.77194L10.4557 5.35404C10.5005 5.43346 10.5662 5.49912 10.6456 5.54391L14.2277 7.56431C14.5668 7.7556 14.5668 8.24402 14.2277 8.43531L10.6456 10.4557C10.5662 10.5005 10.5005 10.5662 10.4557 10.6456L8.43531 14.2277C8.24402 14.5668 7.7556 14.5668 7.56431 14.2277L5.54391 10.6456C5.49912 10.5662 5.43346 10.5005 5.35404 10.4557L1.77194 8.43531C1.43279 8.24402 1.43279 7.7556 1.77194 7.56431L5.35404 5.54391C5.43346 5.49912 5.49912 5.43346 5.54391 5.35404L7.56431 1.77194ZM7.46169 8.00015C7.46169 9.49588 7.22061 9.61553 6.92323 9.61553C6.62584 9.61553 6.38477 9.47593 6.38477 8.00015C6.38477 6.64402 6.62584 6.38477 6.92323 6.38477C7.22061 6.38477 7.46169 6.50442 7.46169 8.00015ZM9.61553 8.00015C9.61553 9.49588 9.37446 9.61553 9.07707 9.61553C8.77969 9.61553 8.53861 9.47593 8.53861 8.00015C8.53861 6.64402 8.77969 6.38477 9.07707 6.38477C9.37446 6.38477 9.61553 6.50442 9.61553 8.00015Z" fill="black"/>
<path fill-rule="evenodd" clip-rule="evenodd" d="M8.43531 1.77194C8.24402 1.43279 7.7556 1.43279 7.56431 1.77194L5.54391 5.35404C5.49912 5.43346 5.43346 5.49912 5.35404 5.54391L1.77194 7.56431C1.43279 7.7556 1.43279 8.24402 1.77194 8.43531L5.35404 10.4557C5.43346 10.5005 5.49912 10.5662 5.54391 10.6456L7.56431 14.2277C7.7556 14.5668 8.24402 14.5668 8.43531 14.2277L10.4557 10.6456C10.5005 10.5662 10.5662 10.5005 10.6456 10.4557L14.2277 8.43531C14.5668 8.24402 14.5668 7.7556 14.2277 7.56431L10.6456 5.54391C10.5662 5.49912 10.5005 5.43346 10.4557 5.35404L8.43531 1.77194ZM7.4615 7.99996C7.4615 9.49569 7.22042 9.61534 6.92304 9.61534C6.62565 9.61534 6.38457 9.47574 6.38457 7.99996C6.38457 6.64383 6.62565 6.38457 6.92304 6.38457C7.22042 6.38457 7.4615 6.50423 7.4615 7.99996ZM9.61534 7.99996C9.61534 9.49569 9.37427 9.61534 9.07688 9.61534C8.7795 9.61534 8.53842 9.47574 8.53842 7.99996C8.53842 6.64383 8.7795 6.38457 9.07688 6.38457C9.37427 6.38457 9.61534 6.50423 9.61534 7.99996Z" fill="#D9D9D9"/>
</g>
<defs>
<clipPath id="clip0_1302_243">
<rect width="16" height="16" fill="white"/>
</clipPath>
</defs>
</svg>
