<svg width="16" height="16" viewBox="0 0 16 16" fill="none" xmlns="http://www.w3.org/2000/svg">
<g clip-path="url(#clip0_65_31)">
<mask id="path-1-outside-1_65_31" maskUnits="userSpaceOnUse" x="0" y="10" width="16" height="6" fill="black">
<rect fill="white" y="10" width="16" height="6"/>
<path d="M3.60156 14.3906V15H1.125V10.5234L3.60156 10.5156V11.0781H1.71875V12.0469H3.60156V12.6094H1.71875V14.3906H3.60156ZM5.45312 10.5156L6.73438 13V10.5234H7.35938V15H6.89062L5.47656 12.2031V15H4.88281V10.5234L5.45312 10.5156ZM11.1172 14.3906V15H8.64062V10.5234L11.1172 10.5156V11.0781H9.23438V12.0469H11.1172V12.6094H9.23438V14.3906H11.1172ZM13.9531 15H13.3594V11.0938H12.3906V10.5234H14.875V11.0938H13.9531V15Z"/>
</mask>
<path d="M3.60156 14.3906V15H1.125V10.5234L3.60156 10.5156V11.0781H1.71875V12.0469H3.60156V12.6094H1.71875V14.3906H3.60156ZM5.45312 10.5156L6.73438 13V10.5234H7.35938V15H6.89062L5.47656 12.2031V15H4.88281V10.5234L5.45312 10.5156ZM11.1172 14.3906V15H8.64062V10.5234L11.1172 10.5156V11.0781H9.23438V12.0469H11.1172V12.6094H9.23438V14.3906H11.1172ZM13.9531 15H13.3594V11.0938H12.3906V10.5234H14.875V11.0938H13.9531V15Z" fill="#E0E0E0"/>
<path d="M3.60156 14.3906H3.80156V14.1906H3.60156V14.3906ZM3.60156 15V15.2H3.80156V15H3.60156ZM1.125 15H0.925V15.2H1.125V15ZM1.125 10.5234L1.12437 10.3234L0.925 10.3241V10.5234H1.125ZM3.60156 10.5156H3.80156V10.315L3.60093 10.3156L3.60156 10.5156ZM3.60156 11.0781V11.2781H3.80156V11.0781H3.60156ZM1.71875 11.0781V10.8781H1.51875V11.0781H1.71875ZM1.71875 12.0469H1.51875V12.2469H1.71875V12.0469ZM3.60156 12.0469H3.80156V11.8469H3.60156V12.0469ZM3.60156 12.6094V12.8094H3.80156V12.6094H3.60156ZM1.71875 12.6094V12.4094H1.51875V12.6094H1.71875ZM1.71875 14.3906H1.51875V14.5906H1.71875V14.3906ZM3.40156 14.3906V15H3.80156V14.3906H3.40156ZM3.60156 14.8H1.125V15.2H3.60156V14.8ZM1.325 15V10.5234H0.925V15H1.325ZM1.12563 10.7234L3.60219 10.7156L3.60093 10.3156L1.12437 10.3234L1.12563 10.7234ZM3.40156 10.5156V11.0781H3.80156V10.5156H3.40156ZM3.60156 10.8781H1.71875V11.2781H3.60156V10.8781ZM1.51875 11.0781V12.0469H1.91875V11.0781H1.51875ZM1.71875 12.2469H3.60156V11.8469H1.71875V12.2469ZM3.40156 12.0469V12.6094H3.80156V12.0469H3.40156ZM3.60156 12.4094H1.71875V12.8094H3.60156V12.4094ZM1.51875 12.6094V14.3906H1.91875V12.6094H1.51875ZM1.71875 14.5906H3.60156V14.1906H1.71875V14.5906ZM5.45312 10.5156L5.63088 10.424L5.57415 10.3139L5.45039 10.3156L5.45312 10.5156ZM6.73438 13L6.55662 13.0917L6.93438 13H6.73438ZM6.73438 10.5234V10.3234H6.53437V10.5234H6.73438ZM7.35938 10.5234H7.55938V10.3234H7.35938V10.5234ZM7.35938 15V15.2H7.55938V15H7.35938ZM6.89062 15L6.71214 15.0902L6.76763 15.2H6.89062V15ZM5.47656 12.2031L5.65505 12.1129L5.27656 12.2031H5.47656ZM5.47656 15V15.2H5.67656V15H5.47656ZM4.88281 15H4.68281V15.2H4.88281V15ZM4.88281 10.5234L4.88007 10.3235L4.68281 10.3262V10.5234H4.88281ZM5.27537 10.6073L6.55662 13.0917L6.91213 12.9083L5.63088 10.424L5.27537 10.6073ZM6.93438 13V10.5234H6.53437V13H6.93438ZM6.73438 10.7234H7.35938V10.3234H6.73438V10.7234ZM7.15937 10.5234V15H7.55938V10.5234H7.15937ZM7.35938 14.8H6.89062V15.2H7.35938V14.8ZM7.06911 14.9098L5.65505 12.1129L5.29808 12.2934L6.71214 15.0902L7.06911 14.9098ZM5.27656 12.2031V15H5.67656V12.2031H5.27656ZM5.47656 14.8H4.88281V15.2H5.47656V14.8ZM5.08281 15V10.5234H4.68281V15H5.08281ZM4.88555 10.7234L5.45586 10.7156L5.45039 10.3156L4.88007 10.3235L4.88555 10.7234ZM11.1172 14.3906H11.3172V14.1906H11.1172V14.3906ZM11.1172 15V15.2H11.3172V15H11.1172ZM8.64062 15H8.44062V15.2H8.64062V15ZM8.64062 10.5234L8.63999 10.3234L8.44062 10.3241V10.5234H8.64062ZM11.1172 10.5156H11.3172V10.315L11.1166 10.3156L11.1172 10.5156ZM11.1172 11.0781V11.2781H11.3172V11.0781H11.1172ZM9.23438 11.0781V10.8781H9.03437V11.0781H9.23438ZM9.23438 12.0469H9.03437V12.2469H9.23438V12.0469ZM11.1172 12.0469H11.3172V11.8469H11.1172V12.0469ZM11.1172 12.6094V12.8094H11.3172V12.6094H11.1172ZM9.23438 12.6094V12.4094H9.03437V12.6094H9.23438ZM9.23438 14.3906H9.03437V14.5906H9.23438V14.3906ZM10.9172 14.3906V15H11.3172V14.3906H10.9172ZM11.1172 14.8H8.64062V15.2H11.1172V14.8ZM8.84063 15V10.5234H8.44062V15H8.84063ZM8.64126 10.7234L11.1178 10.7156L11.1166 10.3156L8.63999 10.3234L8.64126 10.7234ZM10.9172 10.5156V11.0781H11.3172V10.5156H10.9172ZM11.1172 10.8781H9.23438V11.2781H11.1172V10.8781ZM9.03437 11.0781V12.0469H9.43438V11.0781H9.03437ZM9.23438 12.2469H11.1172V11.8469H9.23438V12.2469ZM10.9172 12.0469V12.6094H11.3172V12.0469H10.9172ZM11.1172 12.4094H9.23438V12.8094H11.1172V12.4094ZM9.03437 12.6094V14.3906H9.43438V12.6094H9.03437ZM9.23438 14.5906H11.1172V14.1906H9.23438V14.5906ZM13.9531 15V15.2H14.1531V15H13.9531ZM13.3594 15H13.1594V15.2H13.3594V15ZM13.3594 11.0938H13.5594V10.8937H13.3594V11.0938ZM12.3906 11.0938H12.1906V11.2938H12.3906V11.0938ZM12.3906 10.5234V10.3234H12.1906V10.5234H12.3906ZM14.875 10.5234H15.075V10.3234H14.875V10.5234ZM14.875 11.0938V11.2938H15.075V11.0938H14.875ZM13.9531 11.0938V10.8937H13.7531V11.0938H13.9531ZM13.9531 14.8H13.3594V15.2H13.9531V14.8ZM13.5594 15V11.0938H13.1594V15H13.5594ZM13.3594 10.8937H12.3906V11.2938H13.3594V10.8937ZM12.5906 11.0938V10.5234H12.1906V11.0938H12.5906ZM12.3906 10.7234H14.875V10.3234H12.3906V10.7234ZM14.675 10.5234V11.0938H15.075V10.5234H14.675ZM14.875 10.8937H13.9531V11.2938H14.875V10.8937ZM13.7531 11.0938V15H14.1531V11.0938H13.7531Z" fill="#E0E0E0" mask="url(#path-1-outside-1_65_31)"/>
<path fill-rule="evenodd" clip-rule="evenodd" d="M5.58824 2H2.52941C2.12379 2 1.73477 2.16113 1.44795 2.44795C1.16113 2.73477 1 3.12379 1 3.52941C1.11442 5.41231 1.66133 7.22767 2.58062 8.842L6.26772 8.61065C5.85378 8.11012 5.49673 7.56032 5.20588 6.97059L7.11765 5.82353L5.58824 2Z" fill="#E0E0E0"/>
</g>
<defs>
<clipPath id="clip0_65_31">
<rect width="16" height="16" fill="white"/>
</clipPath>
</defs>
</svg>
