<svg width="16" height="16" viewBox="0 0 16 16" fill="none" xmlns="http://www.w3.org/2000/svg">
<path fill-rule="evenodd" clip-rule="evenodd" d="M13.321 1.54689C13.3973 1.77415 13.6422 1.93562 13.9003 1.93562C15.0599 1.93562 16 2.80223 16 3.87124C16 4.33583 15.8224 4.76219 15.5265 5.09581C15.1812 5.48491 14.8834 5.95404 14.8389 6.45503C14.8383 6.46234 14.8376 6.46966 14.8369 6.47698C14.6354 8.60021 12.6049 10.1708 10.3016 9.98508C7.99835 9.79932 6.29455 7.92752 6.49605 5.80429C6.50009 5.76181 6.50485 5.71954 6.51034 5.6775C6.57109 5.21192 6.40595 4.73425 6.18993 4.30969C6.06812 4.07028 6 3.80273 6 3.52042C6 2.49818 6.89308 1.66949 7.99475 1.66949C8.37865 1.66949 8.78065 1.4656 8.96281 1.15409C9.36472 0.466748 10.1498 3.11097e-09 11.0525 0C12.1183 -3.3082e-08 13.0202 0.650692 13.321 1.54689ZM11.57 6.5506C11.5205 6.71017 11.3405 6.8033 11.1668 6.75878C10.9922 6.71405 10.89 6.54733 10.9385 6.3864L10.9389 6.38512L10.9394 6.38355L10.9406 6.37956C10.9416 6.37653 10.9428 6.37276 10.9444 6.36831C10.9474 6.35941 10.9516 6.34772 10.957 6.33368C10.9678 6.30565 10.9837 6.26779 11.0058 6.22354C11.0495 6.13589 11.1197 6.01839 11.226 5.90199C11.4456 5.6614 11.8171 5.43195 12.3761 5.47704C12.9352 5.52212 13.2578 5.80756 13.4288 6.07964C13.5115 6.21129 13.5585 6.33823 13.585 6.43156C13.5984 6.47867 13.607 6.5185 13.6124 6.54783C13.615 6.56254 13.6169 6.57471 13.6183 6.58396C13.6189 6.58859 13.6194 6.59249 13.6198 6.59563L13.6203 6.59976L13.6205 6.60139L13.6206 6.60241C13.638 6.76866 13.506 6.9168 13.3257 6.9329C13.1462 6.94892 12.9865 6.8284 12.9678 6.66333L12.9676 6.66214L12.9674 6.66089C12.967 6.65834 12.9664 6.65406 12.9653 6.64826C12.9628 6.63446 12.9582 6.61251 12.9503 6.58505C12.9345 6.52922 12.9069 6.45585 12.861 6.38282C12.7747 6.24556 12.6241 6.10422 12.3189 6.07962C12.0138 6.05501 11.8388 6.17008 11.728 6.29145C11.6691 6.35602 11.6281 6.42386 11.6019 6.4763C11.589 6.50209 11.5804 6.52296 11.5753 6.53616C11.5727 6.54272 11.5712 6.54727 11.5704 6.54945L11.57 6.5506ZM8.10757 6.51206C8.28134 6.55658 8.46133 6.46345 8.51085 6.30388L8.51123 6.30273C8.51197 6.30055 8.51357 6.296 8.5161 6.28944C8.52118 6.27624 8.52987 6.25537 8.54274 6.22957C8.5689 6.17714 8.6099 6.1093 8.66885 6.04473C8.77965 5.92336 8.95463 5.80828 9.25976 5.83289C9.56488 5.8575 9.71553 5.99884 9.80179 6.1361C9.84767 6.20913 9.87528 6.2825 9.89116 6.33832C9.89898 6.36579 9.9036 6.38773 9.90612 6.40154C9.90738 6.40841 9.90809 6.41315 9.90841 6.41541L9.90858 6.41661C9.92728 6.58168 10.087 6.7022 10.2665 6.68617C10.4469 6.67007 10.5789 6.52224 10.5614 6.35599L10.5606 6.34891C10.5614 6.35599 10.5614 6.35599 10.5614 6.35599L10.5613 6.35466L10.5611 6.35304L10.5606 6.34891C10.5602 6.34577 10.5597 6.34186 10.5591 6.33723C10.5578 6.32798 10.5559 6.31581 10.5532 6.30111C10.5478 6.27178 10.5393 6.23195 10.5259 6.18483C10.4993 6.09151 10.4523 5.96456 10.3696 5.83292C10.1986 5.56083 9.876 5.2754 9.31695 5.23031C8.7579 5.18523 8.38642 5.41468 8.1668 5.65526C8.06053 5.77167 7.99034 5.88916 7.9466 5.97682C7.92452 6.02107 7.90859 6.05893 7.89779 6.08695C7.89237 6.101 7.88821 6.11268 7.88518 6.12158C7.88453 6.1235 7.88337 6.12695 7.88337 6.12695C7.88265 6.12914 7.88146 6.13283 7.88146 6.13283L7.88067 6.13532L7.8802 6.13682L7.87971 6.13839L7.87941 6.13938C7.87941 6.13938 7.88699 6.11498 7.89779 6.08695L7.87941 6.13938C7.83089 6.30032 7.933 6.46733 8.10757 6.51206Z" fill="#FF5F5F"/>
<path fill-rule="evenodd" clip-rule="evenodd" d="M13.321 1.54689C13.3973 1.77415 13.6422 1.93562 13.9003 1.93562C15.0599 1.93562 16 2.80223 16 3.87124C16 4.33583 15.8224 4.76219 15.5265 5.09581C15.1812 5.48491 14.8834 5.95404 14.8389 6.45503C14.8383 6.46234 14.8376 6.46966 14.8369 6.47698C14.6354 8.60021 12.6049 10.1708 10.3016 9.98508C7.99835 9.79932 6.29455 7.92752 6.49605 5.80429C6.50009 5.76181 6.50485 5.71954 6.51034 5.6775C6.57109 5.21192 6.40595 4.73425 6.18993 4.30969C6.06812 4.07028 6 3.80273 6 3.52042C6 2.49818 6.89308 1.66949 7.99475 1.66949C8.37865 1.66949 8.78065 1.4656 8.96281 1.15409C9.36472 0.466748 10.1498 3.11097e-09 11.0525 0C12.1183 -3.3082e-08 13.0202 0.650692 13.321 1.54689ZM11.57 6.5506C11.5205 6.71017 11.3405 6.8033 11.1668 6.75878C10.9922 6.71405 10.89 6.54733 10.9385 6.3864L10.9389 6.38512L10.9394 6.38355L10.9406 6.37956C10.9416 6.37653 10.9428 6.37276 10.9444 6.36831C10.9474 6.35941 10.9516 6.34772 10.957 6.33368C10.9678 6.30565 10.9837 6.26779 11.0058 6.22354C11.0495 6.13589 11.1197 6.01839 11.226 5.90199C11.4456 5.6614 11.8171 5.43195 12.3761 5.47704C12.9352 5.52212 13.2578 5.80756 13.4288 6.07964C13.5115 6.21129 13.5585 6.33823 13.585 6.43156C13.5984 6.47867 13.607 6.5185 13.6124 6.54783C13.615 6.56254 13.6169 6.57471 13.6183 6.58396C13.6189 6.58859 13.6194 6.59249 13.6198 6.59563L13.6203 6.59976L13.6205 6.60139L13.6206 6.60241C13.638 6.76866 13.506 6.9168 13.3257 6.9329C13.1462 6.94892 12.9865 6.8284 12.9678 6.66333L12.9676 6.66214L12.9674 6.66089C12.967 6.65834 12.9664 6.65406 12.9653 6.64826C12.9628 6.63446 12.9582 6.61251 12.9503 6.58505C12.9345 6.52922 12.9069 6.45585 12.861 6.38282C12.7747 6.24556 12.6241 6.10422 12.3189 6.07962C12.0138 6.05501 11.8388 6.17008 11.728 6.29145C11.6691 6.35602 11.6281 6.42386 11.6019 6.4763C11.589 6.50209 11.5804 6.52296 11.5753 6.53616C11.5727 6.54272 11.5712 6.54727 11.5704 6.54945L11.57 6.5506ZM8.10757 6.51206C8.28134 6.55658 8.46133 6.46345 8.51085 6.30388L8.51123 6.30273C8.51197 6.30055 8.51357 6.296 8.5161 6.28944C8.52118 6.27624 8.52987 6.25537 8.54274 6.22957C8.5689 6.17714 8.6099 6.1093 8.66885 6.04473C8.77965 5.92336 8.95463 5.80828 9.25976 5.83289C9.56488 5.8575 9.71553 5.99884 9.80179 6.1361C9.84767 6.20913 9.87528 6.2825 9.89116 6.33832C9.89898 6.36579 9.9036 6.38773 9.90612 6.40154C9.90738 6.40841 9.90809 6.41315 9.90841 6.41541L9.90858 6.41661C9.92728 6.58168 10.087 6.7022 10.2665 6.68617C10.4469 6.67007 10.5789 6.52224 10.5614 6.35599L10.5606 6.34891C10.5614 6.35599 10.5614 6.35599 10.5614 6.35599L10.5613 6.35466L10.5611 6.35304L10.5606 6.34891C10.5602 6.34577 10.5597 6.34186 10.5591 6.33723C10.5578 6.32798 10.5559 6.31581 10.5532 6.30111C10.5478 6.27178 10.5393 6.23195 10.5259 6.18483C10.4993 6.09151 10.4523 5.96456 10.3696 5.83292C10.1986 5.56083 9.876 5.2754 9.31695 5.23031C8.7579 5.18523 8.38642 5.41468 8.1668 5.65526C8.06053 5.77167 7.99034 5.88916 7.9466 5.97682C7.92452 6.02107 7.90859 6.05893 7.89779 6.08695C7.89237 6.101 7.88821 6.11268 7.88518 6.12158C7.88453 6.1235 7.88337 6.12695 7.88337 6.12695C7.88265 6.12914 7.88146 6.13283 7.88146 6.13283L7.88067 6.13532L7.8802 6.13682L7.87971 6.13839L7.87941 6.13938C7.87941 6.13938 7.88699 6.11498 7.89779 6.08695L7.87941 6.13938C7.83089 6.30032 7.933 6.46733 8.10757 6.51206Z" fill="#FF5F5F"/>
<path fill-rule="evenodd" clip-rule="evenodd" d="M5.5919 6.00231C5.41585 5.99674 5.23754 6.00118 5.05765 6.01616C2.64111 6.21737 0.853509 8.24493 1.06493 10.5448C1.10958 11.0306 1.07256 11.5298 1.03601 12.0227C1.02428 12.1808 1.0126 12.3383 1.00368 12.4945C0.997322 12.6058 0.999135 12.7189 1.00964 12.8332C1.12969 14.1391 2.33932 15.1051 3.71144 14.9908C4.07119 14.9609 4.40639 14.8596 4.70302 14.703C5.04979 14.5199 5.42823 14.3777 5.82327 14.3449C6.1861 14.3146 6.53475 14.2433 6.86458 14.136C7.45538 13.9438 8.1013 13.8894 8.72328 13.8376C10.0954 13.7234 11.1104 12.5721 10.9904 11.2662C10.9818 11.1734 10.9691 11.081 10.9526 10.989C10.6932 11.0055 10.4291 11.0036 10.1619 10.9821C8.98854 10.8875 7.94481 10.4282 7.15062 9.73595C7.16159 9.8245 7.17181 9.91981 7.18124 10.0224C7.30569 11.3762 7.06386 11.5055 6.75327 11.5313C6.44268 11.5572 6.17928 11.4518 6.05649 10.1161C5.97427 9.22163 6.07421 8.84323 6.25467 8.69374C5.75806 7.90663 5.50777 6.97722 5.5919 6.00231ZM4.39645 11.7539C4.70704 11.728 4.94887 11.5987 4.82442 10.245C4.69997 8.89117 4.43823 8.80383 4.12764 8.82969C3.81705 8.85555 3.58684 9.11117 3.69967 10.3386C3.82246 11.6743 4.08586 11.7797 4.39645 11.7539Z" fill="#5EFF97"/>
</svg>
