<svg width="16" height="16" viewBox="0 0 16 16" fill="none" xmlns="http://www.w3.org/2000/svg">
<path fill-rule="evenodd" clip-rule="evenodd" d="M5.88235 2H3.29412C2.9509 2 2.62173 2.13634 2.37904 2.37904C2.13634 2.62173 2 2.9509 2 3.29412C2.10183 4.96976 2.60845 6.58219 3.46069 8H6.82044C6.31308 7.47421 5.88634 6.86997 5.55882 6.20588L7.17647 5.23529L5.88235 2Z" fill="#E0E0E0"/>
<path d="M10.7647 8.82353L9.79412 10.4412C9.05309 10.0757 8.38658 9.5867 7.82044 9H4.46069C4.89217 9.71783 5.41225 10.3858 6.01324 10.9868C7.80128 12.7748 10.1819 13.8466 12.7059 14C13.0491 14 13.3783 13.8637 13.621 13.621C13.8637 13.3783 14 13.0491 14 12.7059V10.1176L10.7647 8.82353Z" fill="#E0E0E0"/>
</svg>
