<svg width="16" height="16" viewBox="0 0 16 16" fill="none" xmlns="http://www.w3.org/2000/svg">
<path fill-rule="evenodd" clip-rule="evenodd" d="M1 1V15H2V13H4V15H12V13H14V15H15V1H14V3H12V1H4V3H2V1H1ZM4 3V7C4 7.53043 4.21071 8.03914 4.58579 8.41421C4.96086 8.78929 5.46957 9 6 9V11C6 11.5304 6.21071 12.0391 6.58579 12.4142C6.96086 12.7893 7.46957 13 8 13H12V5H8V3H4ZM7 4V6H11V8H9V10H11V12H8C7.73478 12 7.48043 11.8946 7.29289 11.7071C7.10536 11.5196 7 11.2652 7 11V8H6C5.73478 8 5.48043 7.89464 5.29289 7.70711C5.10536 7.51957 5 7.26522 5 7V4H7Z" fill="#E0E0E0"/>
<path fill-rule="evenodd" clip-rule="evenodd" d="M7 4H5V7C5 7.26522 5.10536 7.51957 5.29289 7.70711C5.48043 7.89464 5.73478 8 6 8H7V9H9V8H11V6H7V4Z" fill="#5FFF97"/>
<path d="M11 10H9V9H7V11C7 11.2652 7.10536 11.5196 7.29289 11.7071C7.48043 11.8946 7.73478 12 8 12H11V10Z" fill="#FF5F5F"/>
</svg>
