<svg width="16" height="16" viewBox="0 0 16 16" fill="none" xmlns="http://www.w3.org/2000/svg">
<path fill-rule="evenodd" clip-rule="evenodd" d="M7.77851 2.09357C8.4677 1.4109 9.39985 1.02997 10.3699 1.03457C11.34 1.03918 12.2684 1.42895 12.9511 2.11814C13.6338 2.80733 14.0147 3.73948 14.0101 4.70953C14.0055 5.67958 13.6157 6.60807 12.9266 7.29074C12.2374 7.97342 11.3052 8.35435 10.3352 8.34974C9.70633 8.34676 9.09495 8.18191 8.55669 7.87857L7.09385 9.32758L8.37384 10.6198C8.76251 11.0122 8.7595 11.6453 8.36713 12.034C7.97475 12.4227 7.34159 12.4196 6.95293 12.0273L5.67294 10.7351L4.42702 11.9692L5.75055 13.2927C6.14108 13.6833 6.14108 14.3164 5.75055 14.707C5.36003 15.0975 4.72686 15.0975 4.33634 14.707L2.30233 12.673C2.11421 12.4848 2.00881 12.2295 2.00944 11.9635C2.01007 11.6974 2.11669 11.4426 2.30569 11.2554L4.97576 8.61056C4.97581 8.61051 4.97586 8.61046 4.97591 8.61041C4.97596 8.61036 4.97601 8.61031 4.97606 8.61026L7.14921 6.45766C6.85099 5.91654 6.69196 5.30363 6.69495 4.67479C6.69956 3.70474 7.08933 2.77625 7.77851 2.09357ZM10.3604 3.03455C9.92078 3.03246 9.49833 3.2051 9.186 3.51449C8.87366 3.82387 8.69701 4.24466 8.69493 4.68429C8.69284 5.12391 8.86548 5.54636 9.17486 5.8587C9.48425 6.17104 9.90504 6.34768 10.3447 6.34977C10.7843 6.35186 11.2067 6.17922 11.5191 5.86983C11.8314 5.56045 12.0081 5.13966 12.0101 4.70003C12.0122 4.26041 11.8396 3.83796 11.5302 3.52562C11.2208 3.21328 10.8 3.03664 10.3604 3.03455Z" fill="#FFBF5F"/>
</svg>
