<svg width="16" height="16" viewBox="0 0 16 16" fill="none" xmlns="http://www.w3.org/2000/svg">
<g clip-path="url(#clip0_518_2)">
<path d="M7.5645 0.772135C7.75579 0.432982 8.24421 0.432981 8.4355 0.772134L10.8165 4.99361C10.8613 5.07302 10.927 5.13868 11.0064 5.18348L15.2279 7.5645C15.567 7.75579 15.567 8.24421 15.2279 8.4355L11.0064 10.8165C10.927 10.8613 10.8613 10.927 10.8165 11.0064L8.4355 15.2279C8.24421 15.567 7.75579 15.567 7.5645 15.2279L5.18348 11.0064C5.13868 10.927 5.07302 10.8613 4.99361 10.8165L0.772135 8.4355C0.432982 8.24421 0.432981 7.75579 0.772134 7.5645L4.99361 5.18348C5.07302 5.13868 5.13868 5.07302 5.18348 4.99361L7.5645 0.772135Z" fill="#5F95FF"/>
</g>
<defs>
<clipPath id="clip0_518_2">
<rect width="16" height="16" fill="white"/>
</clipPath>
</defs>
</svg>
