<svg width="16" height="16" viewBox="0 0 16 16" fill="none" xmlns="http://www.w3.org/2000/svg">
<path d="M6 12C5.99997 12.181 6.0491 12.3587 6.14213 12.514C6.23516 12.6693 6.36861 12.7965 6.52823 12.8819C6.68786 12.9673 6.86769 13.0078 7.04852 12.999C7.22935 12.9902 7.4044 12.9325 7.555 12.832L13.555 8.832C13.692 8.74067 13.8043 8.61695 13.8819 8.47182C13.9596 8.32668 14.0002 8.16461 14.0002 8C14.0002 7.83538 13.9596 7.67332 13.8819 7.52818C13.8043 7.38304 13.692 7.25932 13.555 7.168L7.555 3.168C7.4044 3.06752 7.22935 3.00981 7.04852 3.00103C6.86769 2.99224 6.68786 3.03271 6.52823 3.11812C6.36861 3.20353 6.23516 3.33068 6.14213 3.48599C6.0491 3.6413 5.99997 3.81895 6 4V12Z" fill="#5FFF97"/>
<rect x="2" y="3" width="2" height="4" rx="1" fill="#FF5F5F"/>
<rect x="2" y="9" width="2" height="4" rx="1" fill="#FF5F5F"/>
</svg>
