<svg width="16" height="16" viewBox="0 0 16 16" fill="none" xmlns="http://www.w3.org/2000/svg">
<path d="M6.79931 2C7.25837 1.99997 7.70008 2.1754 8.03408 2.49037C8.36808 2.80535 8.56911 3.23606 8.59605 3.6944L8.59905 3.8V4.4H10.3988C10.7015 4.3999 10.993 4.51424 11.215 4.7201C11.437 4.92595 11.5729 5.20811 11.5956 5.51L11.5986 5.6V7.4H12.1985C12.667 7.39955 13.1172 7.58181 13.4534 7.90806C13.7897 8.23431 13.9855 8.67884 13.9992 9.14718C14.013 9.61552 13.8436 10.0708 13.5271 10.4162C13.2105 10.7616 12.7718 10.97 12.3041 10.997L12.1985 11H11.5986V12.8C11.5987 13.1027 11.4844 13.3943 11.2786 13.6163C11.0727 13.8383 10.7906 13.9743 10.4888 13.997L10.3988 14H8.59905C8.29634 14.0001 8.00479 13.8858 7.78283 13.6799C7.56088 13.474 7.42492 13.1919 7.40222 12.89L7.39922 12.8V12.2C7.39905 12.0471 7.3405 11.9 7.23553 11.7888C7.13057 11.6776 6.98711 11.6107 6.83446 11.6017C6.68182 11.5927 6.53152 11.6424 6.41426 11.7406C6.29701 11.8387 6.22165 11.9779 6.20359 12.1298L6.19939 12.2V12.8C6.19949 13.1027 6.08517 13.3943 5.87934 13.6163C5.67352 13.8383 5.3914 13.9743 5.08955 13.997L4.99957 14H3.19983C2.89712 14.0001 2.60557 13.8858 2.38362 13.6799C2.16166 13.474 2.0257 13.1919 2.003 12.89L2 12.8V11C1.9999 10.6973 2.11423 10.4057 2.32005 10.1837C2.52588 9.96168 2.80799 9.82571 3.10984 9.803L3.19983 9.8H3.79974C3.95265 9.79983 4.09972 9.74127 4.2109 9.63629C4.32209 9.53131 4.389 9.38783 4.39796 9.23516C4.40692 9.0825 4.35725 8.93217 4.25911 8.8149C4.16097 8.69763 4.02177 8.62226 3.86993 8.6042L3.79974 8.6H3.19983C2.89712 8.6001 2.60557 8.48576 2.38362 8.2799C2.16166 8.07405 2.0257 7.79189 2.003 7.49L2 7.4V5.6C1.9999 5.29725 2.11423 5.00566 2.32005 4.78367C2.52588 4.56168 2.80799 4.42571 3.10984 4.403L3.19983 4.4H4.99957V3.8C4.99957 3.32261 5.18918 2.86477 5.5267 2.52721C5.86421 2.18964 6.32199 2 6.79931 2Z" fill="#5EFF97"/>
</svg>
