<svg width="16" height="16" viewBox="0 0 16 16" fill="none" xmlns="http://www.w3.org/2000/svg">
<g clip-path="url(#clip0_1169_53)">
<path fill-rule="evenodd" clip-rule="evenodd" d="M8.88878 13.158C9.70745 13.0289 10.5681 13.0962 11.3968 13.1617C13.2248 13.3062 14.8126 11.9856 14.9432 10.212C15.0868 8.26165 13.9043 6.21459 12.8201 4.55466C11.8597 3.08438 10.2247 2.05177 8.30728 1.90018C5.08776 1.64565 2.29139 3.97152 2.06142 7.09515C2.01285 7.7549 1.854 8.41489 1.69714 9.06662C1.64683 9.27567 1.59672 9.48387 1.55052 9.69094C1.51759 9.83853 1.495 9.99027 1.48358 10.1455C1.353 11.9191 2.72907 13.474 4.55712 13.6186C5.03641 13.6565 5.49918 13.5936 5.92351 13.4483C6.41954 13.2785 6.94816 13.1703 7.47447 13.2119C7.95786 13.2501 8.43171 13.2301 8.88878 13.158ZM10.213 7.72178C10.0776 9.56044 9.73135 9.68101 9.31755 9.6483C8.90376 9.61558 8.58095 9.41746 8.71451 7.60331C8.83725 5.93626 9.19616 5.64408 9.60995 5.6768C10.0237 5.70951 10.3484 5.88312 10.213 7.72178ZM7.06723 7.50874C6.93186 9.3474 6.58559 9.46798 6.17179 9.43526C5.758 9.40255 5.43519 9.20442 5.56875 7.39028C5.69148 5.72322 6.05039 5.43104 6.46419 5.46376C6.87798 5.49647 7.2026 5.67009 7.06723 7.50874Z" fill="#E0E0E0"/>
</g>
<defs>
<clipPath id="clip0_1169_53">
<rect width="16" height="16" fill="white"/>
</clipPath>
</defs>
</svg>
