<svg width="16" height="12" viewBox="0 0 16 12" fill="none" xmlns="http://www.w3.org/2000/svg">
<path d="M5.49963 4H7.34863C7.34863 4.33603 7.24328 4.6583 7.05574 4.8959C6.8682 5.13351 6.61385 5.267 6.34863 5.267V6.267C6.57831 6.267 6.79858 6.35824 6.96099 6.52065C7.12339 6.68305 7.21463 6.90332 7.21463 7.133C7.21463 7.36268 7.12339 7.58295 6.96099 7.74535C6.79858 7.90776 6.57831 7.999 6.34863 7.999H5.34863V9.999H6.34863C6.91259 10.0372 7.47497 9.90449 7.96231 9.61812C8.44965 9.33175 8.8393 8.90506 9.08036 8.39379C9.32141 7.88251 9.40267 7.31042 9.31352 6.75224C9.22437 6.19407 8.96895 5.67575 8.58063 5.265C8.81964 5.15441 9.0201 4.97486 9.15625 4.74944C9.2924 4.52401 9.358 4.26301 9.34463 4V2H5.49963V4Z" fill="white" fill-opacity="0.4"/>
<path fill-rule="evenodd" clip-rule="evenodd" d="M7.349 4H4V10H2V4H0V2H9.345V4C9.35837 4.26301 9.29277 4.52401 9.15662 4.74944C9.02047 4.97486 8.82001 5.15441 8.581 5.265C8.96932 5.67575 9.22474 6.19407 9.31389 6.75224C9.40304 7.31042 9.32178 7.88251 9.08072 8.39379C8.83967 8.90506 8.45002 9.33175 7.96268 9.61812C7.47534 9.90449 6.91296 10.0372 6.349 9.999H5.349V7.999H6.349C6.57868 7.999 6.79895 7.90776 6.96135 7.74535C7.12376 7.58295 7.215 7.36268 7.215 7.133C7.215 6.90332 7.12376 6.68305 6.96135 6.52065C6.79895 6.35824 6.57868 6.267 6.349 6.267V5.267C6.61422 5.267 6.86857 5.13351 7.05611 4.8959C7.24364 4.6583 7.349 4.33603 7.349 4ZM14.8284 8.82843C14.0783 9.57857 13.0609 10 12 10H10V8H12C12.5304 8 13.0391 7.78929 13.4142 7.41421C13.7893 7.03914 14 6.53043 14 6V8H15.4641C15.2908 8.30019 15.0778 8.57908 14.8284 8.82843ZM15.873 7C15.9566 6.67606 16 6.34027 16 6C16 4.93913 15.5786 3.92172 14.8284 3.17157C14.0783 2.42143 13.0609 2 12 2H10V7H11V5H12V4C12.5304 4 13.0391 4.21071 13.4142 4.58579C13.5389 4.71046 13.6454 4.8499 13.7321 5H15V7H15.873Z" fill="#F68F45"/>
<path fill-rule="evenodd" clip-rule="evenodd" d="M14 6H12V8H10V10H12V12H14V10H16V8H14V6Z" fill="#5EFF97"/>
</svg>
