<svg width="16" height="12" viewBox="0 0 16 12" fill="none" xmlns="http://www.w3.org/2000/svg">
<path fill-rule="evenodd" clip-rule="evenodd" d="M0 4V2H7C7.79565 2 8.55871 2.31607 9.12132 2.87868C9.68393 3.44129 10 4.20435 10 5C10 5.79565 9.68393 6.55871 9.12132 7.12132C8.55871 7.68393 7.79565 8 7 8H9V10H5V8C5 7.46957 5.21071 6.96086 5.58579 6.58579C5.96086 6.21071 6.46957 6 7 6C7.26522 6 7.51957 5.89464 7.70711 5.70711C7.89464 5.51957 8 5.26522 8 5C8 4.73478 7.89464 4.48043 7.70711 4.29289C7.51957 4.10536 7.26522 4 7 4H4V10H2V4H0ZM10 10H12C13.0609 10 14.0783 9.57857 14.8284 8.82843C15.0778 8.57908 15.2908 8.30019 15.4641 8H14V6C14 6.53043 13.7893 7.03914 13.4142 7.41421C13.0391 7.78929 12.5304 8 12 8H10V10ZM13.7321 5C13.6454 4.8499 13.5389 4.71046 13.4142 4.58579C13.0391 4.21071 12.5304 4 12 4V5H11V7H10V5V2H12C13.0609 2 14.0783 2.42143 14.8284 3.17157C15.5786 3.92172 16 4.93913 16 6C16 6.34027 15.9566 6.67606 15.873 7H15V5H13.7321Z" fill="#B9EC41"/>
<path fill-rule="evenodd" clip-rule="evenodd" d="M6.5 4V2H7C7.79565 2 8.55871 2.31607 9.12132 2.87868C9.68393 3.44129 10 4.20435 10 5C10 5.79565 9.68393 6.55871 9.12132 7.12132C8.55871 7.68393 7.79565 8 7 8H9V10H5V8C5 7.46957 5.21071 6.96086 5.58579 6.58579C5.96086 6.21071 6.46957 6 7 6C7.26522 6 7.51957 5.89464 7.70711 5.70711C7.89464 5.51957 8 5.26522 8 5C8 4.73478 7.89464 4.48043 7.70711 4.29289C7.51957 4.10536 7.26522 4 7 4H6.5Z" fill="#D5F48D"/>
<path fill-rule="evenodd" clip-rule="evenodd" d="M14 6H12V8H10V10H12V12H14V10H16V8H14V6Z" fill="#5EFF97"/>
</svg>
