<svg width="16" height="16" viewBox="0 0 16 16" fill="none" xmlns="http://www.w3.org/2000/svg">
<path d="M5.48943 7.8C5.48943 7.1671 5.69409 6.54841 6.07751 6.02218C6.46093 5.49594 7.00591 5.08579 7.64352 4.84359C8.28113 4.60139 8.98274 4.53802 9.65962 4.66149L10 3.09223C8.98467 2.90702 7.93226 3.00208 6.97585 3.36538C6.01943 3.72868 5.20197 4.34391 4.62683 5.13326C4.05169 5.92262 3.74472 6.85065 3.74472 7.8H2L4.61708 11L7.23415 7.8H5.48943Z" fill="#5FFF97"/>
<path d="M11.5106 8.2C11.5106 8.8329 11.3059 9.45159 10.9225 9.97782C10.5391 10.5041 9.99409 10.9142 9.35648 11.1564C8.71887 11.3986 8.01726 11.462 7.34038 11.3385L7 12.9078C8.01532 13.093 9.06774 12.9979 10.0242 12.6346C10.9806 12.2713 11.798 11.6561 12.3732 10.8667C12.9483 10.0774 13.2553 9.14935 13.2553 8.2L15 8.2L12.3829 5L9.76585 8.2L11.5106 8.2Z" fill="#FF5F5F"/>
</svg>
