<svg width="16" height="16" viewBox="0 0 16 16" fill="none" xmlns="http://www.w3.org/2000/svg">
<path d="M5.30391 12.14C4.75057 12.14 4.32391 12.0533 4.02391 11.88C3.72391 11.7067 3.54724 11.42 3.49391 11.02C3.44057 10.6133 3.51057 10.0667 3.70391 9.38L4.29391 7.29C4.34724 7.11 4.34057 6.97 4.27391 6.87C4.20724 6.76333 4.07391 6.69667 3.87391 6.67L4.09391 5.82C4.52724 5.88667 4.84391 6.03333 5.04391 6.26C5.25057 6.48667 5.30391 6.78667 5.20391 7.16L4.58391 9.38C4.44391 9.87333 4.38391 10.26 4.40391 10.54C4.42391 10.82 4.51724 11.0167 4.68391 11.13C4.85057 11.2367 5.08391 11.29 5.38391 11.29C5.53724 11.29 5.67057 11.2667 5.78391 11.22C5.89724 11.1733 6.01391 11.09 6.13391 10.97C6.25391 10.8433 6.39057 10.67 6.54391 10.45L7.23391 10.93C7.02057 11.23 6.81391 11.47 6.61391 11.65C6.42057 11.83 6.21724 11.9567 6.00391 12.03C5.79724 12.1033 5.56391 12.14 5.30391 12.14ZM5.30391 4.75C5.00391 4.75 4.80724 4.69667 4.71391 4.59C4.62724 4.47667 4.61057 4.28333 4.66391 4.01C4.71724 3.77 4.80057 3.60667 4.91391 3.52C5.02724 3.43333 5.21057 3.39 5.46391 3.39C5.76391 3.39 5.96057 3.44333 6.05391 3.55C6.14724 3.65667 6.16057 3.85 6.09391 4.13C6.04724 4.37 5.96724 4.53333 5.85391 4.62C5.74057 4.70667 5.55724 4.75 5.30391 4.75ZM10.36 12.14C9.76 12.14 9.31 12.0333 9.01 11.82C8.71667 11.6067 8.55 11.26 8.51 10.78C8.47 10.3 8.52667 9.66333 8.68 8.87C8.80667 8.25667 9.01333 7.71 9.3 7.23C9.58667 6.75 9.93 6.37333 10.33 6.1C10.7367 5.82 11.1733 5.68 11.64 5.68C12.24 5.68 12.69 5.78667 12.99 6C13.2967 6.21333 13.4733 6.56 13.52 7.04C13.5667 7.52 13.5 8.15667 13.32 8.95C13.1867 9.55667 12.9733 10.1033 12.68 10.59C12.3933 11.07 12.0533 11.45 11.66 11.73C11.2667 12.0033 10.8333 12.14 10.36 12.14ZM10.45 11.29C10.75 11.29 11.0367 11.1867 11.31 10.98C11.5833 10.7667 11.8233 10.4767 12.03 10.11C12.2433 9.74333 12.3933 9.33 12.48 8.87C12.6 8.27 12.65 7.8 12.63 7.46C12.6167 7.12 12.5233 6.88 12.35 6.74C12.1767 6.6 11.91 6.53 11.55 6.53C11.2567 6.53 10.9733 6.63667 10.7 6.85C10.4333 7.05667 10.1967 7.34333 9.99 7.71C9.78333 8.07 9.62667 8.48333 9.52 8.95C9.38667 9.55 9.32667 10.02 9.34 10.36C9.36 10.7 9.46 10.94 9.64 11.08C9.82 11.22 10.09 11.29 10.45 11.29Z" fill="white"/>
</svg>
