<svg width="16" height="16" viewBox="0 0 16 16" fill="none" xmlns="http://www.w3.org/2000/svg">
<g clip-path="url(#clip0_65_28)">
<mask id="path-1-outside-1_65_28" maskUnits="userSpaceOnUse" x="2" y="9" width="12" height="7" fill="black">
<rect fill="white" x="2" y="9" width="12" height="7"/>
<path d="M5.25098 9.4043H6.05176V14.2969H7.61426V9.4043H8.35645V15H2.95605V9.4043H3.7373V14.2969H5.25098V9.4043ZM10.6904 14.2676H12.2627V13.3398L9.94824 12.002V9.4043H13.0439V10.9961H12.3115V10.127H10.7295V11.2988L13.0244 12.627V14.9902L9.94824 15V13.3984H10.6904V14.2676Z"/>
</mask>
<path d="M5.25098 9.4043H6.05176V14.2969H7.61426V9.4043H8.35645V15H2.95605V9.4043H3.7373V14.2969H5.25098V9.4043ZM10.6904 14.2676H12.2627V13.3398L9.94824 12.002V9.4043H13.0439V10.9961H12.3115V10.127H10.7295V11.2988L13.0244 12.627V14.9902L9.94824 15V13.3984H10.6904V14.2676Z" fill="#E0E0E0"/>
<path d="M5.25098 9.4043V9.2043H5.05098V9.4043H5.25098ZM6.05176 9.4043H6.25176V9.2043H6.05176V9.4043ZM6.05176 14.2969H5.85176V14.4969H6.05176V14.2969ZM7.61426 14.2969V14.4969H7.81426V14.2969H7.61426ZM7.61426 9.4043V9.2043H7.41426V9.4043H7.61426ZM8.35645 9.4043H8.55645V9.2043H8.35645V9.4043ZM8.35645 15V15.2H8.55645V15H8.35645ZM2.95605 15H2.75605V15.2H2.95605V15ZM2.95605 9.4043V9.2043H2.75605V9.4043H2.95605ZM3.7373 9.4043H3.9373V9.2043H3.7373V9.4043ZM3.7373 14.2969H3.5373V14.4969H3.7373V14.2969ZM5.25098 14.2969V14.4969H5.45098V14.2969H5.25098ZM5.25098 9.6043H6.05176V9.2043H5.25098V9.6043ZM5.85176 9.4043V14.2969H6.25176V9.4043H5.85176ZM6.05176 14.4969H7.61426V14.0969H6.05176V14.4969ZM7.81426 14.2969V9.4043H7.41426V14.2969H7.81426ZM7.61426 9.6043H8.35645V9.2043H7.61426V9.6043ZM8.15645 9.4043V15H8.55645V9.4043H8.15645ZM8.35645 14.8H2.95605V15.2H8.35645V14.8ZM3.15605 15V9.4043H2.75605V15H3.15605ZM2.95605 9.6043H3.7373V9.2043H2.95605V9.6043ZM3.5373 9.4043V14.2969H3.9373V9.4043H3.5373ZM3.7373 14.4969H5.25098V14.0969H3.7373V14.4969ZM5.45098 14.2969V9.4043H5.05098V14.2969H5.45098ZM10.6904 14.2676H10.4904V14.4676H10.6904V14.2676ZM12.2627 14.2676V14.4676H12.4627V14.2676H12.2627ZM12.2627 13.3398H12.4627V13.2244L12.3628 13.1667L12.2627 13.3398ZM9.94824 12.002H9.74824V12.1174L9.84815 12.1751L9.94824 12.002ZM9.94824 9.4043V9.2043H9.74824V9.4043H9.94824ZM13.0439 9.4043H13.2439V9.2043H13.0439V9.4043ZM13.0439 10.9961V11.1961H13.2439V10.9961H13.0439ZM12.3115 10.9961H12.1115V11.1961H12.3115V10.9961ZM12.3115 10.127H12.5115V9.92695H12.3115V10.127ZM10.7295 10.127V9.92695H10.5295V10.127H10.7295ZM10.7295 11.2988H10.5295V11.4142L10.6293 11.4719L10.7295 11.2988ZM13.0244 12.627H13.2244V12.5116L13.1246 12.4539L13.0244 12.627ZM13.0244 14.9902L13.025 15.1902L13.2244 15.1896V14.9902H13.0244ZM9.94824 15H9.74824V15.2006L9.94888 15.2L9.94824 15ZM9.94824 13.3984V13.1984H9.74824V13.3984H9.94824ZM10.6904 13.3984H10.8904V13.1984H10.6904V13.3984ZM10.6904 14.4676H12.2627V14.0676H10.6904V14.4676ZM12.4627 14.2676V13.3398H12.0627V14.2676H12.4627ZM12.3628 13.1667L10.0483 11.8288L9.84815 12.1751L12.1626 13.513L12.3628 13.1667ZM10.1482 12.002V9.4043H9.74824V12.002H10.1482ZM9.94824 9.6043H13.0439V9.2043H9.94824V9.6043ZM12.8439 9.4043V10.9961H13.2439V9.4043H12.8439ZM13.0439 10.7961H12.3115V11.1961H13.0439V10.7961ZM12.5115 10.9961V10.127H12.1115V10.9961H12.5115ZM12.3115 9.92695H10.7295V10.327H12.3115V9.92695ZM10.5295 10.127V11.2988H10.9295V10.127H10.5295ZM10.6293 11.4719L12.9242 12.8001L13.1246 12.4539L10.8297 11.1257L10.6293 11.4719ZM12.8244 12.627V14.9902H13.2244V12.627H12.8244ZM13.0238 14.7902L9.94761 14.8L9.94888 15.2L13.025 15.1902L13.0238 14.7902ZM10.1482 15V13.3984H9.74824V15H10.1482ZM9.94824 13.5984H10.6904V13.1984H9.94824V13.5984ZM10.4904 13.3984V14.2676H10.8904V13.3984H10.4904Z" fill="#E0E0E0" mask="url(#path-1-outside-1_65_28)"/>
<path fill-rule="evenodd" clip-rule="evenodd" d="M5.58824 2H2.52941C2.12379 2 1.73477 2.16113 1.44795 2.44795C1.16113 2.73477 1 3.12379 1 3.52941C1.11442 5.41231 1.66133 7.22767 2.58062 8.842L6.26772 8.61065C5.85378 8.11012 5.49673 7.56032 5.20588 6.97059L7.11765 5.82353L5.58824 2Z" fill="#E0E0E0"/>
</g>
<defs>
<clipPath id="clip0_65_28">
<rect width="16" height="16" fill="white"/>
</clipPath>
</defs>
</svg>
